<svg xmlns="http://www.w3.org/2000/svg" width="16" height="16" fill="currentColor" class="bi bi-fullscreen" viewBox="0 0 16 16">
  <path d="M1.5 1a.5.5 0 0 0-.5.5v4a.5.5 0 0 1-1 0v-4A1.5 1.5 0 0 1 1.5 0h4a.5.5 0 0 1 0 1zM10 .5a.5.5 0 0 1 .5-.5h4A1.5 1.5 0 0 1 16 1.5v4a.5.5 0 0 1-1 0v-4a.5.5 0 0 0-.5-.5h-4a.5.5 0 0 1-.5-.5M.5 10a.5.5 0 0 1 .5.5v4a.5.5 0 0 0 .5.5h4a.5.5 0 0 1 0 1h-4A1.5 1.5 0 0 1 0 14.5v-4a.5.5 0 0 1 .5-.5m15 0a.5.5 0 0 1 .5.5v4a1.5 1.5 0 0 1-1.5 1.5h-4a.5.5 0 0 1 0-1h4a.5.5 0 0 0 .5-.5v-4a.5.5 0 0 1 .5-.5"/>
<line x1="5.5" y1="4" x2="10.5" y2="4" stroke="white" stroke-width="2"/>

  <line x1="4" y1="8" x2="8" y2="4" stroke="white" stroke-width="1"/>
  <line x1="12" y1="8" x2="8" y2="4" stroke="white" stroke-width="1"/>

  <line x1="2" y1="8" x2="7" y2="8" stroke="white" stroke-width="2"/>
  <line x1="9" y1="8" x2="14" y2="8" stroke="white" stroke-width="2"/>

  <line x1="4.5" y1="8" x2="4.5" y2="12" stroke="white" stroke-width="1"/>
  <line x1="11.5" y1="8" x2="11.5" y2="12" stroke="white" stroke-width="1"/>

  <line x1="2" y1="12" x2="7" y2="12" stroke="white" stroke-width="2"/>
  <line x1="9" y1="12" x2="14" y2="12" stroke="white" stroke-width="2"/>
</svg>