<?xml version="1.0" standalone="no"?>
<!DOCTYPE svg PUBLIC "-//W3C//DTD SVG 20010904//EN"
 "http://www.w3.org/TR/2001/REC-SVG-20010904/DTD/svg10.dtd">
<svg version="1.0" xmlns="http://www.w3.org/2000/svg"
 width="1312.000000pt" height="937.000000pt" viewBox="0 0 1312.000000 937.000000"
 preserveAspectRatio="xMidYMid meet">

<g transform="translate(0.000000,937.000000) scale(0.100000,-0.100000)"
fill="#73B5B4" stroke="none">
<path d="M10105 8818 c-84 -31 -232 -166 -310 -283 -162 -243 -219 -550 -135
-716 55 -107 162 -91 301 46 188 186 330 534 317 779 -3 66 -9 93 -24 113 -44
58 -97 80 -149 61z"/>
<path d="M9255 8740 c-60 -9 -98 -33 -187 -118 -105 -101 -217 -250 -273 -365
-118 -242 -113 -441 13 -587 50 -57 81 -57 191 0 142 74 262 216 367 434 104
215 136 430 82 548 -15 31 -37 62 -50 69 -32 17 -95 26 -143 19z"/>
<path d="M10830 8722 c-49 -24 -164 -135 -216 -208 -124 -173 -221 -488 -199
-648 25 -190 139 -213 287 -59 182 192 352 610 324 798 -6 40 -16 58 -51 92
-48 49 -85 55 -145 25z"/>
<path d="M8390 8571 c-135 -41 -321 -194 -427 -351 -114 -169 -176 -388 -153
-538 43 -267 269 -290 494 -51 162 173 268 433 270 664 1 129 -15 185 -69 242
-42 44 -62 50 -115 34z"/>
<path d="M11505 8461 c-75 -47 -224 -239 -291 -375 -62 -126 -96 -264 -98
-391 -1 -94 1 -102 27 -142 16 -23 35 -44 43 -47 24 -9 65 18 130 86 112 116
225 315 296 518 29 84 33 107 33 202 0 93 -3 110 -21 135 -26 35 -76 42 -119
14z"/>
<path d="M7327 8261 c-135 -69 -293 -245 -353 -392 -57 -139 -74 -325 -41
-440 47 -159 178 -220 321 -149 240 120 431 620 327 856 -27 60 -44 79 -100
116 -53 33 -101 36 -154 9z"/>
<path d="M12081 8020 c-180 -82 -392 -432 -433 -718 -15 -100 -6 -150 28 -158
79 -20 277 206 420 481 69 131 104 237 104 314 0 52 -3 62 -26 80 -33 26 -38
26 -93 1z"/>
<path d="M6331 7930 c-128 -59 -259 -215 -310 -370 -37 -115 -30 -273 15 -364
31 -63 123 -158 176 -182 35 -15 45 -16 86 -5 62 16 135 64 177 115 47 58 100
167 126 261 30 108 33 284 5 368 -31 96 -139 197 -208 197 -13 0 -43 -9 -67
-20z"/>
<path d="M5272 7595 c-77 -40 -150 -158 -188 -304 -25 -98 -16 -248 18 -322
60 -130 183 -196 315 -169 193 41 307 408 198 646 -65 144 -220 211 -343 149z"/>
<path d="M12527 7406 c-144 -52 -340 -282 -469 -551 -43 -90 -52 -120 -53
-164 0 -71 16 -82 77 -53 132 64 365 347 484 587 54 109 65 162 39 181 -23 17
-30 17 -78 0z"/>
<path d="M4315 7336 c-35 -16 -103 -86 -133 -136 -69 -117 -67 -280 5 -411 36
-67 128 -157 188 -185 126 -59 221 -6 284 159 28 75 38 200 22 277 -43 207
-229 357 -366 296z"/>
<path d="M3325 7104 c-129 -67 -150 -246 -53 -444 46 -93 155 -201 227 -225
146 -48 237 46 234 245 -2 135 -48 245 -145 341 -87 87 -192 120 -263 83z"/>
<path d="M563 7018 c-45 -57 3 -247 105 -421 91 -154 235 -307 290 -307 101 0
24 259 -162 544 -87 135 -151 196 -204 196 -11 0 -24 -6 -29 -12z"/>
<path d="M2345 6966 c-64 -64 -52 -198 35 -372 92 -185 236 -311 330 -288 46
12 80 75 80 149 0 126 -95 348 -194 454 -70 76 -202 106 -251 57z"/>
<path d="M1454 6942 c-74 -49 -25 -281 101 -477 48 -76 140 -172 187 -196 84
-43 128 -15 128 82 0 192 -146 480 -289 571 -44 27 -102 37 -127 20z"/>
<path d="M9285 6931 c-211 -96 -352 -422 -303 -699 44 -250 178 -332 316 -193
113 114 169 269 192 521 10 122 0 262 -24 312 -20 41 -73 78 -112 78 -16 0
-47 -9 -69 -19z"/>
<path d="M9957 6926 c-61 -42 -94 -86 -151 -201 -69 -139 -86 -201 -93 -347
-11 -231 51 -378 158 -378 32 0 46 7 77 38 114 114 212 438 199 661 -7 118
-21 164 -68 213 -43 45 -71 48 -122 14z"/>
<path d="M8574 6881 c-59 -15 -137 -66 -191 -126 -67 -73 -143 -224 -174 -345
-31 -118 -31 -271 -1 -354 76 -207 231 -233 387 -65 62 68 133 204 160 309 23
92 30 249 15 353 -24 170 -95 253 -196 228z"/>
<path d="M10605 6818 c-122 -67 -235 -347 -235 -582 0 -105 16 -228 36 -268
21 -45 54 -62 89 -46 73 33 178 299 220 553 27 162 16 280 -31 330 -25 27 -47
31 -79 13z"/>
<path d="M7703 6716 c-139 -80 -245 -225 -304 -416 -31 -99 -34 -287 -6 -367
61 -175 215 -229 364 -127 93 63 179 203 229 371 64 214 14 488 -101 543 -58
28 -129 26 -182 -4z"/>
<path d="M11119 6579 c-74 -79 -130 -188 -165 -319 -41 -152 -56 -390 -31
-474 28 -93 76 -68 146 77 89 181 151 428 151 594 0 143 -38 190 -101 122z"/>
<path d="M6830 6504 c-103 -58 -193 -175 -237 -308 -22 -67 -26 -100 -27 -191
-1 -128 21 -208 79 -287 37 -50 121 -112 167 -123 71 -18 217 105 281 236 104
211 106 481 5 603 -79 95 -178 121 -268 70z"/>
<path d="M5973 6319 c-48 -14 -155 -119 -191 -187 -59 -111 -74 -227 -47 -357
40 -188 158 -309 301 -308 71 1 107 17 157 72 48 53 74 106 98 198 56 223 -17
458 -173 550 -62 37 -100 45 -145 32z"/>
<path d="M11540 6229 c-108 -118 -210 -418 -210 -618 0 -220 80 -178 184 97
66 175 90 285 91 419 0 152 -8 164 -65 102z"/>
<path d="M5020 6098 c-89 -45 -127 -142 -137 -345 -6 -122 -6 -123 25 -185 54
-111 168 -213 259 -232 82 -18 174 47 214 152 30 78 37 250 15 345 -29 125
-101 232 -181 268 -57 26 -140 25 -195 -3z"/>
<path d="M4153 5950 c-72 -16 -107 -63 -139 -190 -28 -112 -6 -214 76 -344 47
-74 135 -161 185 -181 19 -8 58 -15 86 -15 47 0 55 3 94 43 55 55 75 119 75
243 0 152 -45 260 -151 359 -73 69 -158 100 -226 85z"/>
<path d="M565 5900 c-49 -79 14 -295 138 -482 69 -105 175 -220 222 -242 144
-69 80 211 -119 520 -101 155 -213 250 -241 204z"/>
<path d="M3218 5843 c-63 -66 -107 -214 -88 -299 39 -172 269 -413 395 -414
73 0 114 71 115 195 0 142 -59 302 -145 394 -60 65 -171 140 -215 147 -29 5
-39 1 -62 -23z"/>
<path d="M1439 5814 c-23 -28 -23 -142 0 -235 60 -240 255 -481 366 -453 81
20 71 149 -25 351 -55 115 -87 165 -156 242 -89 99 -154 132 -185 95z"/>
<path d="M2335 5786 c-37 -16 -85 -70 -85 -95 0 -36 43 -178 74 -247 87 -186
240 -344 335 -344 20 0 37 9 54 29 59 71 38 222 -59 411 -100 195 -223 290
-319 246z"/>
<path d="M8872 5144 c-104 -53 -181 -267 -168 -469 10 -159 58 -283 143 -369
59 -60 110 -86 164 -86 58 0 106 51 138 146 33 96 41 310 17 438 -50 262 -171
402 -294 340z"/>
<path d="M9520 5142 c-70 -35 -111 -163 -111 -351 0 -140 26 -254 86 -377 107
-220 225 -206 271 33 54 285 -47 662 -191 707 -11 3 -36 -2 -55 -12z"/>
<path d="M8220 5111 c-82 -26 -140 -83 -195 -193 -48 -98 -68 -197 -63 -322 3
-98 6 -108 46 -188 126 -255 314 -310 432 -127 97 151 115 424 40 621 -56 149
-167 238 -260 209z"/>
<path d="M10084 5085 c-123 -188 -10 -825 147 -825 22 0 32 7 44 31 30 56 45
160 45 305 0 231 -36 383 -112 469 -32 37 -46 45 -74 45 -25 0 -38 -6 -50 -25z"/>
<path d="M7440 5031 c-81 -26 -121 -66 -164 -161 -54 -119 -73 -348 -41 -475
45 -178 162 -304 281 -305 50 0 134 41 169 82 140 166 141 552 4 758 -22 32
-56 69 -75 80 -38 24 -132 35 -174 21z"/>
<path d="M10637 5011 c-39 -47 -52 -119 -51 -276 2 -223 59 -432 144 -524 37
-40 46 -35 67 41 34 125 27 368 -18 598 -23 112 -30 132 -62 168 -28 30 -50
28 -80 -7z"/>
<path d="M6658 4949 c-103 -28 -198 -169 -230 -339 -13 -72 -4 -204 17 -255
25 -58 98 -168 147 -221 59 -64 103 -84 182 -84 125 0 164 31 211 170 81 239
38 467 -118 621 -81 80 -162 122 -209 108z"/>
<path d="M11102 4887 c-26 -30 -35 -123 -29 -287 9 -243 56 -437 119 -483 49
-37 51 -26 45 242 -7 263 -17 357 -48 448 -28 83 -61 112 -87 80z"/>
<path d="M5785 4811 c-166 -77 -211 -344 -96 -566 81 -157 264 -272 374 -236
44 15 100 75 118 127 23 65 18 273 -9 367 -43 151 -123 270 -207 308 -51 24
-129 24 -180 0z"/>
<path d="M560 4771 c-16 -32 -12 -124 11 -197 57 -186 228 -426 343 -481 67
-31 93 8 71 108 -33 159 -143 362 -269 496 -83 90 -134 114 -156 74z"/>
<path d="M4938 4738 c-52 -13 -103 -73 -124 -144 -21 -72 -15 -218 11 -284 45
-113 173 -258 275 -314 94 -51 162 -38 217 44 32 46 43 93 43 184 0 205 -106
404 -258 483 -66 35 -112 44 -164 31z"/>
<path d="M1420 4681 c-14 -28 -12 -105 5 -179 46 -195 170 -401 284 -474 55
-34 85 -35 116 -3 95 94 -91 518 -282 644 -55 36 -107 41 -123 12z"/>
<path d="M4048 4685 c-41 -23 -78 -110 -85 -197 -15 -199 117 -427 300 -516
119 -59 192 -42 217 47 24 88 2 309 -41 399 -26 55 -152 184 -232 237 -63 42
-119 53 -159 30z"/>
<path d="M2302 4683 c-42 -17 -54 -128 -26 -237 33 -128 152 -336 235 -411 23
-20 62 -46 87 -57 38 -17 51 -19 83 -9 47 14 59 35 59 101 0 71 -24 159 -70
258 -110 235 -274 393 -368 355z"/>
<path d="M3181 4658 c-44 -24 -65 -63 -69 -134 -8 -120 27 -235 106 -352 88
-128 212 -237 285 -249 39 -6 83 25 103 73 19 44 18 152 -2 227 -32 126 -92
229 -190 329 -94 95 -179 134 -233 106z"/>
<path d="M566 3648 c-20 -29 -21 -106 -1 -182 62 -238 288 -554 389 -544 30 3
31 5 34 55 9 160 -230 612 -359 679 -37 19 -45 18 -63 -8z"/>
<path d="M10104 3609 c-16 -18 -19 -36 -18 -128 1 -117 26 -219 88 -362 82
-188 233 -369 308 -369 63 0 61 140 -7 350 -86 265 -202 467 -296 516 -38 19
-53 18 -75 -7z"/>
<path d="M9508 3603 c-36 -41 -42 -68 -41 -168 4 -277 165 -604 342 -694 50
-26 82 -27 112 -2 19 15 24 30 27 86 9 132 -47 336 -143 531 -95 192 -240 312
-297 247z"/>
<path d="M10682 3597 c-19 -22 -24 -111 -13 -188 42 -265 273 -672 376 -657
18 3 20 10 19 78 0 60 -9 99 -42 198 -85 251 -265 582 -317 582 -7 0 -17 -6
-23 -13z"/>
<path d="M11164 3554 c-14 -78 22 -208 105 -379 93 -190 232 -372 277 -363 64
12 -16 236 -183 513 -63 106 -177 265 -189 265 -2 0 -6 -16 -10 -36z"/>
<path d="M8845 3556 c-39 -39 -50 -97 -50 -256 0 -138 2 -150 33 -239 115
-330 380 -531 468 -354 29 58 26 256 -5 378 -45 174 -122 334 -197 409 -40 39
-141 86 -187 86 -27 0 -45 -7 -62 -24z"/>
<path d="M1434 3515 c-14 -21 -16 -40 -10 -110 9 -110 28 -179 75 -280 63
-135 153 -250 241 -309 29 -19 101 -21 118 -4 21 21 14 124 -14 206 -55 160
-143 311 -238 410 -103 108 -144 129 -172 87z"/>
<path d="M8223 3530 c-183 -43 -243 -383 -114 -645 63 -128 191 -265 296 -317
56 -28 101 -31 150 -9 39 17 50 29 73 78 26 55 27 66 27 208 0 173 -18 260
-85 402 -99 213 -222 313 -347 283z"/>
<path d="M7462 3449 c-44 -22 -121 -101 -150 -153 -14 -25 -17 -56 -15 -156 1
-156 21 -250 74 -360 74 -152 258 -310 361 -310 79 0 145 57 185 160 13 35 17
77 18 185 0 120 -3 151 -23 215 -45 141 -125 274 -221 363 -85 79 -149 95
-229 56z"/>
<path d="M2285 3386 c-25 -37 -28 -85 -11 -166 47 -224 297 -550 420 -550 56
0 76 31 76 117 -1 241 -267 623 -434 623 -26 0 -40 -6 -51 -24z"/>
<path d="M6644 3351 c-70 -32 -131 -134 -141 -234 -10 -102 47 -282 129 -409
89 -137 245 -248 350 -248 86 0 130 36 158 128 59 190 -20 473 -178 643 -115
123 -225 164 -318 120z"/>
<path d="M3174 3311 c-51 -32 -67 -109 -43 -209 15 -64 88 -216 137 -288 72
-106 204 -211 306 -244 38 -12 40 -12 67 18 42 46 53 103 40 186 -48 291 -365
626 -507 537z"/>
<path d="M5802 3290 c-22 -14 -43 -40 -60 -78 -25 -52 -27 -67 -27 -182 0
-144 13 -193 77 -304 74 -127 217 -244 354 -292 50 -17 52 -17 90 3 25 12 48
36 64 64 23 40 25 54 25 169 0 103 -4 138 -24 200 -42 136 -89 218 -171 301
-124 125 -245 169 -328 119z"/>
<path d="M4057 3279 c-32 -19 -57 -88 -57 -159 0 -168 81 -341 227 -481 135
-131 261 -160 317 -74 28 42 39 143 26 227 -21 137 -101 267 -233 378 -119
100 -225 141 -280 109z"/>
<path d="M4935 3281 c-38 -16 -47 -40 -57 -152 -13 -138 0 -249 38 -318 61
-112 238 -286 336 -331 103 -47 175 -8 204 110 58 229 -103 534 -349 661 -62
32 -138 45 -172 30z"/>
<path d="M585 2515 c-8 -95 4 -173 46 -304 79 -242 217 -481 278 -481 35 0 46
28 45 114 -4 215 -127 488 -317 701 l-44 50 -8 -80z"/>
<path d="M11705 2308 c-23 -92 224 -412 395 -511 83 -48 206 -87 274 -87 92 0
100 40 26 129 -88 106 -369 325 -571 445 -86 52 -116 57 -124 24z"/>
<path d="M1430 2261 c-39 -74 42 -315 176 -524 103 -160 225 -252 272 -205 34
34 -5 214 -79 360 -40 81 -130 219 -183 282 -78 95 -161 133 -186 87z"/>
<path d="M11083 2235 c-18 -50 35 -174 138 -320 73 -103 290 -326 363 -373 74
-48 155 -76 183 -63 81 37 -55 259 -322 526 -196 196 -339 287 -362 230z"/>
<path d="M10510 2174 c-14 -35 -12 -77 5 -159 65 -308 477 -748 609 -652 16
11 18 23 14 68 -13 142 -158 382 -356 591 -154 162 -248 215 -272 152z"/>
<path d="M9854 2134 c-25 -38 -30 -155 -9 -234 43 -167 175 -381 329 -536 134
-134 234 -182 290 -141 58 42 27 224 -69 418 -91 180 -262 382 -405 477 -74
50 -112 54 -136 16z"/>
<path d="M2330 2062 c-22 -18 -25 -28 -24 -84 2 -175 129 -411 329 -615 104
-105 137 -124 181 -104 67 30 52 183 -37 380 -66 145 -217 336 -318 400 -65
42 -100 48 -131 23z"/>
<path d="M9198 2055 c-94 -51 -71 -318 47 -556 59 -119 96 -172 185 -260 98
-98 196 -149 297 -156 92 -7 99 1 96 117 -7 260 -137 547 -335 735 -119 114
-222 157 -290 120z"/>
<path d="M8535 1993 c-39 -11 -65 -36 -92 -91 -24 -50 -28 -71 -32 -170 -4
-133 11 -211 68 -343 78 -179 233 -365 361 -429 104 -53 221 -44 250 18 18 39
25 259 11 333 -40 203 -151 416 -287 552 -92 92 -212 148 -279 130z"/>
<path d="M3262 1888 c-42 -46 -53 -114 -31 -206 18 -76 104 -244 169 -330 100
-134 268 -278 349 -302 69 -20 102 61 83 205 -19 139 -148 362 -297 511 -129
130 -225 173 -273 122z"/>
<path d="M7745 1854 c-47 -24 -71 -52 -96 -107 -19 -44 -23 -69 -23 -157 0
-229 108 -456 305 -644 251 -239 424 -200 437 100 14 321 -182 660 -465 803
-50 25 -116 27 -158 5z"/>
<path d="M4202 1757 c-74 -78 -67 -218 18 -390 116 -231 321 -444 461 -477 99
-24 149 19 149 126 0 169 -126 413 -305 591 -161 160 -267 209 -323 150z"/>
<path d="M6945 1735 c-93 -34 -128 -135 -107 -315 23 -200 75 -303 232 -461
186 -186 304 -242 401 -187 113 63 121 286 19 531 -116 280 -383 491 -545 432z"/>
<path d="M5142 1695 c-44 -32 -57 -72 -57 -180 0 -189 79 -366 234 -529 104
-108 243 -198 328 -212 109 -17 158 76 129 241 -26 148 -107 319 -213 450
-134 165 -348 282 -421 230z"/>
<path d="M6048 1685 c-15 -9 -38 -39 -54 -72 -50 -101 -34 -257 42 -421 100
-217 293 -409 462 -458 62 -18 108 -13 147 18 41 32 55 77 55 172 0 107 -33
225 -100 355 -144 279 -416 479 -552 406z"/>
</g>
</svg>
